HIERARCHY
ROOT Character1_Hips
{
  OFFSET 2.28432 92.6422 -30.7737
  CHANNELS 6 Xposition Yposition Zposition Zrotation Xrotation Yrotation
  JOINT Character1_Spine
  {
    OFFSET 0 9 3
    CHANNELS 3 Zrotation Xrotation Yrotation
    JOINT Character1_Spine1
    {
      OFFSET 0 12.6667 0
      CHANNELS 3 Zrotation Xrotation Yrotation
      JOINT Character1_Spine2
      {
        OFFSET 0 12.6667 0
        CHANNELS 3 Zrotation Xrotation Yrotation
        JOINT Character1_LeftShoulder
        {
          OFFSET 7 14.2552 0
          CHANNELS 3 Zrotation Xrotation Yrotation
          JOINT Character1_LeftArm
          {
            OFFSET 10.7073 0.0001374 0
            CHANNELS 3 Zrotation Xrotation Yrotation
            JOINT Character1_LeftForeArm
            {
              OFFSET 27.3055 0 0
              CHANNELS 3 Zrotation Xrotation Yrotation
              JOINT Character1_LeftHand
              {
                OFFSET 26.6971 0 0
                CHANNELS 3 Zrotation Xrotation Yrotation
                End Site
                {
                  OFFSET 0 0 0
                }
              }
            }
          }
        }
        JOINT Character1_RightShoulder
        {
          OFFSET -7 14.2552 0
          CHANNELS 3 Zrotation Xrotation Yrotation
          JOINT Character1_RightArm
          {
            OFFSET -10.7073 0.0004332 0
            CHANNELS 3 Zrotation Xrotation Yrotation
            JOINT Character1_RightForeArm
            {
              OFFSET -27.3056 0 0
              CHANNELS 3 Zrotation Xrotation Yrotation
              JOINT Character1_RightHand
              {
                OFFSET -26.697 0 0
                CHANNELS 3 Zrotation Xrotation Yrotation
                End Site
                {
                  OFFSET 0 0 0
                }
              }
            }
          }
        }
        JOINT Character1_Neck
        {
          OFFSET 0 12.6667 0
          CHANNELS 3 Zrotation Xrotation Yrotation
          JOINT Character1_Head
          {
            OFFSET 0 20 0
            CHANNELS 3 Zrotation Xrotation Yrotation
            End Site
            {
              OFFSET 0 0 0
            }
          }
        }
      }
    }
  }
  JOINT Character1_RightUpLeg
  {
    OFFSET -9.035 -4.63425 1.845
    CHANNELS 3 Zrotation Xrotation Yrotation
    JOINT Character1_RightLeg
    {
      OFFSET -0.919521 -40.345 1.155
      CHANNELS 3 Zrotation Xrotation Yrotation
      JOINT Character1_RightFoot
      {
        OFFSET 1.95452 -45.2655 -4.18888
        CHANNELS 3 Zrotation Xrotation Yrotation
        JOINT Character1_RightToeBase
        {
          OFFSET 1.87056 -6.69517 14.7145
          CHANNELS 3 Zrotation Xrotation Yrotation
          End Site
          {
            OFFSET 0 0 0
          }
        }
        JOINT FootR
        {
          OFFSET 8 -7.75529 4.18888
          CHANNELS 3 Zrotation Xrotation Yrotation
          End Site
          {
            OFFSET 0 0 0
          }
        }
      }
      JOINT TibiaBoxR1
      {
        OFFSET 0.679521 -22.8458 -3.405
        CHANNELS 3 Zrotation Xrotation Yrotation
        End Site
        {
          OFFSET 0 0 0
        }
      }
    }
    JOINT FemurBoxR1
    {
      OFFSET -0.965 -20.9557 -0.845
      CHANNELS 3 Zrotation Xrotation Yrotation
      End Site
      {
        OFFSET 0 0 0
      }
    }
  }
  JOINT Character1_LeftUpLeg
  {
    OFFSET 9.035 -4.63425 1.845
    CHANNELS 3 Zrotation Xrotation Yrotation
    JOINT Character1_LeftLeg
    {
      OFFSET 0.919521 -40.345 1.155
      CHANNELS 3 Zrotation Xrotation Yrotation
      JOINT Character1_LeftFoot
      {
        OFFSET -1.95452 -45.2655 -4.18888
        CHANNELS 3 Zrotation Xrotation Yrotation
        JOINT Character1_LeftToeBase
        {
          OFFSET -1.87056 -6.69517 14.7145
          CHANNELS 3 Zrotation Xrotation Yrotation
          End Site
          {
            OFFSET 0 0 0
          }
        }
        JOINT FootL
        {
          OFFSET -8 -7.75529 4.18888
          CHANNELS 3 Zrotation Xrotation Yrotation
          End Site
          {
            OFFSET 0 0 0
          }
        }
      }
      JOINT TibiaBoxL1
      {
        OFFSET -0.679521 -22.8458 -3.405
        CHANNELS 3 Zrotation Xrotation Yrotation
        End Site
        {
          OFFSET 0 0 0
        }
      }
    }
    JOINT FemurBoxL1
    {
      OFFSET 0.965 -20.9557 -0.845
      CHANNELS 3 Zrotation Xrotation Yrotation
      End Site
      {
        OFFSET 0 0 0
      }
    }
  }
  JOINT TorsoBox1
  {
    OFFSET 0 0 1.83
    CHANNELS 3 Zrotation Xrotation Yrotation
    End Site
    {
      OFFSET 0 0 0
    }
  }
}
MOTION
Frames:	10
Frame Time:	0.00833333
4.1496 92.054 36.185 6.03247 1.16024 2.82438 -1.03751 2.98655 -11.5431 1.2528 -0.769226 1.92897 1.26679 -0.825904 1.89694 -1.87945 -0.00552777 0.372191 -74.7054 17.5729 -9.41118 17.7341 0.222466 -25.7968 0.0961842 -0.00763782 -1.07286 -1.90137 0.008059 -0.426604 82.1232 8.24076 -5.68123 -16.013 2.8907 22.4039 -0.112786 -0.000357769 1.34844 -10.42 -1.0786 -3.44824 8.45904 -2.71918 -2.05147 -8.37537 -34.096 2.55273 -0.697462 21.289 -8.49516 2.54611 4.46326 -0.293374 -5.34393 0.741652 -5.61356 9.93923e-017 -1.59028e-015 -0 -178 -5 -180 179.002 0.985149 179.879 -7.67028 8.09445 -5.6654 1.12015 18.4773 7.31219 -2.67648 -15.7194 0.720496 6.85459 -18.8842 7.16861 -0 0 1.59028e-015 -2 5 -0 0.99792 -0.985149 -0.120973 -1.78934e-015 -2.51106e-016 -4.71267e-016 
3.9863 91.9843 37.2441 5.78074 1.05494 2.63035 -0.945798 2.96924 -11.724 1.34393 -0.801298 2.02798 1.35695 -0.857893 1.99672 -1.7874 -0.00552778 0.354218 -75.0626 17.3253 -9.01705 18.0977 0.511148 -26.052 0.102671 -0.00763768 -1.1247 -1.82448 0.008059 -0.426017 82.0041 7.7954 -5.78858 -15.985 3.71771 21.9962 -0.130281 -0.000357753 1.45544 -10.413 -0.647609 -3.30335 8.49159 -3.17073 -1.90653 -7.76273 -34.0652 2.60459 -0.675323 22.5765 -8.62087 2.34559 4.41981 -0.268124 -5.35492 0.973131 -5.60645 4.96962e-017 -1.59028e-015 -0 -178 -5 180 179.002 0.985149 179.879 -7.34432 8.63272 -5.93118 1.09823 18.7611 7.33783 -2.65642 -15.4779 0.718168 6.83341 -19.3983 7.26418 -1.98785e-016 -1.59028e-015 7.95139e-016 -2 5 -1.35956e-015 0.99792 -0.985149 -0.120973 -3.97632e-016 -1.25553e-016 -4.71267e-016 
3.90222 91.8808 38.3623 5.84876 0.95727 2.71818 -0.957604 2.96801 -11.7287 1.30542 -0.811657 1.9258 1.31689 -0.86597 1.89483 -1.78891 -0.00552778 0.353895 -75.1869 17.1987 -8.89915 18.1045 0.447979 -26.0943 0.105454 -0.0076377 -1.11837 -1.82286 0.008059 -0.425544 82.1411 7.24101 -6.07203 -16.1497 4.41723 21.8816 -0.148017 -0.000357738 1.55014 -10.2989 -0.560174 -3.19536 8.37429 -3.21477 -1.82211 -7.78494 -34.0014 2.30829 -0.613845 23.9756 -8.48172 2.30089 4.71216 -0.255498 -5.3191 -0.850903 -5.73422 -2.20695e-032 7.95139e-016 1.59028e-015 -178 -5 -180 179.002 0.985149 179.879 -7.34977 9.24712 -6.28233 1.07416 19.0885 7.33286 -2.62747 -15.1729 0.712907 6.84832 -19.228 7.31869 1.98785e-016 0 -1.59028e-015 -2 5 4.53187e-016 0.99792 -0.985149 -0.120973 4.41813e-016 -1.25553e-016 -4.71267e-016 
3.83145 91.8399 39.5126 5.95746 0.940165 2.99241 -0.972039 3.01122 -11.6438 1.31548 -0.747055 1.67481 1.3257 -0.796029 1.64453 -1.84127 -0.00552778 0.354156 -75.2279 17.2698 -8.9424 18.1192 0.174081 -26.2618 0.107397 -0.00763777 -1.09099 -1.863 0.008059 -0.424392 82.0548 7.07693 -6.01785 -16.0961 4.64483 21.7248 -0.152822 -0.000357734 1.57121 -10.2779 -0.918532 -3.14915 8.19994 -3.17573 -1.77382 -8.03084 -33.7811 1.63465 -0.537172 25.0226 -7.95121 2.24554 5.06065 -0.239871 -5.31064 -1.26272 -5.76234 7.45443e-017 1.19271e-015 7.95139e-016 -178 -5 180 179.002 0.985149 179.879 -7.36832 9.79236 -6.88516 1.04651 19.3936 7.26753 -2.57914 -14.6691 0.703901 6.91143 -18.607 7.31494 -1.98785e-016 1.59028e-015 -7.95139e-016 -2 5 -4.53187e-016 0.99792 -0.985149 -0.120973 -7.6581e-016 -1.25553e-016 -9.42535e-016 
3.67196 91.9001 40.634 5.85435 1.00651 3.16489 -0.920248 3.02553 -11.5314 1.3441 -0.736931 1.59216 1.35393 -0.782163 1.56257 -1.80105 -0.00552778 0.354653 -75.3449 17.5996 -8.77745 18.3846 0.046373 -26.6319 0.108414 -0.00763775 -1.09824 -1.82225 0.008059 -0.422955 81.9895 6.30028 -5.90468 -16.0793 5.26175 21.4487 -0.167735 -0.000357721 1.64488 -10.3048 -1.31353 -3.30327 8.25177 -2.90006 -1.90449 -7.7541 -33.3481 1.7267 -0.532018 25.148 -7.52599 2.24332 5.66539 -0.225231 -5.32173 -0.639421 -5.71372 -1.2424e-017 0 -0 -178 -5 -180 179.002 0.985149 179.879 -7.13763 10.1058 -7.50576 1.01927 19.765 7.21941 -2.51136 -13.9148 0.689504 6.93254 -18.2924 7.34579 -1.98785e-016 6.36111e-015 7.95139e-016 -2 5 -4.53187e-016 0.99792 -0.985149 -0.120973 4.41813e-017 -1.25553e-016 -4.71267e-016 
3.44706 92.0305 41.7528 5.44325 0.979814 3.20457 -0.848934 3.03531 -11.4748 1.4967 -0.705544 1.64333 1.50625 -0.749725 1.61541 -1.79308 -0.00552778 0.355046 -75.4264 17.8345 -8.72034 18.3499 -0.287492 -26.782 0.108437 -0.00763785 -1.05811 -1.82746 0.008059 -0.421353 82.0832 5.42856 -5.97733 -16.2301 5.80101 21.3996 -0.183517 -0.000357707 1.71944 -10.2299 -1.54768 -3.43492 8.13244 -2.53544 -2.06159 -6.97979 -32.5257 2.24591 -0.581903 24.4081 -7.19184 2.23845 6.68107 -0.200426 -5.24841 -4.12715 -5.93594 -1.86361e-017 0 -7.95139e-016 -178 -5 -180 179.002 0.985149 179.879 -6.60529 10.3583 -8.05597 1.00323 20.3449 7.33998 -2.45032 -13.1226 0.673204 6.34786 -17.1696 7.48651 -4.41391e-032 3.18055e-015 7.95139e-016 -2 5 -0 0.99792 -0.985149 -0.120973 -4.19723e-016 0 4.71267e-016 
3.25605 92.1362 42.8209 4.92668 1.04247 3.25204 -0.751831 2.99947 -11.4901 1.71596 -0.769636 1.6426 1.72491 -0.810811 1.61372 -1.78569 -0.00552778 0.356363 -75.5913 17.5841 -8.70431 18.2267 -0.294907 -26.6475 0.107379 -0.00763788 -1.04668 -1.85901 0.00805901 -0.419707 82.2262 5.50107 -6.3929 -16.3304 5.43892 21.6584 -0.175159 -0.000357714 1.68345 -10.0759 -1.24515 -3.35359 7.86533 -2.71854 -2.03707 -6.24897 -32.0107 2.54525 -0.496121 24.2271 -6.33561 2.24586 6.77184 -0.199388 -5.1251 -12.6309 -6.47534 -0 -2.98177e-016 -0 -178 -5 180 179.002 0.985149 179.879 -6.04132 10.3303 -8.71178 0.989877 21.2154 7.56229 -2.38399 -12.1934 0.652976 5.76487 -17.8011 7.66949 -4.41391e-032 6.36111e-015 3.97569e-016 -2 5 -0 0.99792 -0.985149 -0.120973 1.91452e-016 -1.25553e-016 -4.71267e-016 
3.11195 92.251 43.9091 4.30571 1.13645 3.31375 -0.601569 2.89982 -11.547 2.07055 -0.95375 1.61444 2.0782 -0.991424 1.582 -1.78125 -0.00552778 0.358738 -76.1394 17.2944 -8.20474 18.1972 0.044629 -26.422 0.105159 -0.00763779 -1.08399 -1.932 0.00805901 -0.418138 82.1853 5.81251 -7.00887 -16.2868 5.05575 21.7684 -0.164565 -0.000357723 1.63293 -10.1992 -0.956271 -3.22342 7.72905 -2.61555 -1.95872 -5.56052 -31.648 2.44794 -0.361298 24.3722 -5.48623 2.15314 6.08794 -0.202149 -5.1195 -12.3257 -6.44261 1.94126e-019 -1.98785e-016 -1.2424e-017 -178 -5 -180 179.002 0.985149 179.879 -5.43501 10.0694 -9.43506 0.965626 22.3593 7.69964 -2.30711 -11.1453 0.628936 5.67579 -18.6398 7.78482 0 3.18055e-015 -0 -2 5 2.26594e-016 0.99792 -0.985149 -0.120973 -2.2827e-016 2.51106e-016 -0 
2.96642 92.3401 45.0312 3.77395 1.13296 3.22103 -0.452399 2.83184 -11.6974 2.37152 -1.07021 1.65727 2.37807 -1.10595 1.62443 -1.75167 -0.00552778 0.360491 -76.8423 16.9708 -7.4449 18.2689 0.199876 -26.4161 0.101705 -0.00763773 -1.10755 -1.96024 0.00805901 -0.416767 81.9366 5.24415 -7.19672 -16.168 5.889 21.2956 -0.184653 -0.000357706 1.724 -10.4227 -0.956744 -3.12283 7.83826 -2.16988 -1.86971 -4.89903 -31.2647 2.25565 -0.253686 24.5172 -4.77313 1.94526 5.48279 -0.187931 -5.18098 -7.02081 -6.09026 1.16475e-018 -9.93923e-017 -4.96962e-017 -178 -5 -180 179.002 0.985149 179.879 -4.96115 9.76864 -9.89436 0.924739 23.7064 7.71674 -2.2157 -10.0051 0.601217 5.43929 -19.9094 7.92422 0 0 -0 -2 5 2.26594e-016 0.99792 -0.985149 -0.120973 1.82616e-015 -3.7666e-016 -1.4138e-015 
2.80167 92.4433 46.1675 3.06647 1.03212 2.90287 -0.312351 2.84087 -11.867 2.68687 -1.00759 1.9293 2.69333 -1.04403 1.90121 -1.73812 -0.00552778 0.359945 -77.1848 16.8695 -7.17131 18.1231 -0.233819 -26.4952 0.0936656 -0.00763788 -1.04677 -1.97637 0.00805901 -0.415667 81.8529 4.5809 -7.29604 -16.1171 6.27745 21.0857 -0.194299 -0.000357698 1.76628 -10.5288 -1.0695 -3.11696 7.86258 -1.83092 -1.87241 -3.88079 -30.6669 2.2385 -0.212975 24.5407 -4.43168 1.65982 4.87707 -0.165471 -5.2041 -5.60392 -5.99781 8.62091e-035 -9.93923e-017 4.96962e-017 -178 -5 180 179.002 0.985149 179.879 -4.33679 9.46209 -10.0694 0.878988 25.2234 7.64595 -2.09866 -8.62197 0.565141 5.36721 -21.1015 8.09634 4.96962e-017 -3.18055e-015 -9.93923e-017 -2 5 1.69945e-016 0.99792 -0.985149 -0.120973 -4.63904e-016 3.7666e-016 4.71267e-016 
